<?xml version="1.0" encoding="UTF-8" standalone="no"?>
<!-- Created with Inkscape (http://www.inkscape.org/) -->

<svg
   version="1.1"
   id="svg2"
   width="364"
   height="166.66667"
   viewBox="0 0 364 166.66667"
   sodipodi:docname="make-in-india-seeklogo.eps"
   xmlns:inkscape="http://www.inkscape.org/namespaces/inkscape"
   xmlns:sodipodi="http://sodipodi.sourceforge.net/DTD/sodipodi-0.dtd"
   xmlns="http://www.w3.org/2000/svg"
   xmlns:svg="http://www.w3.org/2000/svg">
  <defs
     id="defs6" />
  <sodipodi:namedview
     id="namedview4"
     pagecolor="#ffffff"
     bordercolor="#000000"
     borderopacity="0.25"
     inkscape:showpageshadow="2"
     inkscape:pageopacity="0.0"
     inkscape:pagecheckerboard="0"
     inkscape:deskcolor="#d1d1d1" />
  <g
     id="g8"
     inkscape:groupmode="layer"
     inkscape:label="ink_ext_XXXXXX"
     transform="matrix(1.3333333,0,0,-1.3333333,0,166.66667)">
    <g
       id="g10"
       transform="scale(0.1)">
      <path
         d="m 2721.32,794.402 c -1.89,-13.07 -10.31,-24.644 -21.87,-30.32 -4.41,-2.098 -9.01,-3.285 -13.67,-3.488 -2.61,-16.098 -11.28,-27.781 -25.73,-34.766 -16.58,-8.043 -38.26,-8.851 -59.24,-9.648 -27.58,-1.055 -65.55,-3.418 -91.64,-12.09 -25.39,-35.527 18.65,-49.527 40.43,-19.152 22.65,-9.219 54.15,-29.555 35.96,-56.575 -1.65,-2.433 -3.34,-4.976 -5.04,-8.375 -4.2,-8.347 -3.78,-18.515 -3.33,-29.238 0.48,-11.066 0.88,-22.516 -3.41,-33.543 -3.3,-8.266 -8.68,-14.277 -15.94,-17.844 -11.24,-5.425 -24.63,-4.086 -37.59,-2.812 -5.89,0.597 -11.41,1.113 -16.49,1.043 l -6.63,-0.133 -1.92,6.355 c -2.14,7.157 -2.57,12.758 -2.89,16.875 -0.27,2.93 -0.43,4.918 -1.17,6.602 -0.7,0.871 -1.39,1.812 -2.15,2.754 -1.49,1.316 -3.68,2.664 -7.04,4.488 l -0.39,0.168 c -4.21,2.305 -7.17,3.574 -9.2,4.293 v 0 0.004 c -0.89,12.16 -2.88,24.316 -6.84,36.203 -3,8.719 -7.15,17.125 -12.35,24.895 -5.19,7.726 -11.53,14.672 -18.38,20.925 -6.8,6.235 -13.98,11.797 -21.03,17.188 -7.06,5.437 -14.01,10.762 -20.42,16.492 -6.41,5.676 -12.37,11.649 -17.15,18.317 -2.42,3.234 -4.61,6.789 -6.3,10.222 -1.87,3.766 -3.43,7.594 -4.77,11.492 -2.74,7.774 -4.34,15.899 -4.74,24.125 -0.51,8.266 0.34,16.582 1.82,24.918 2.95,16.707 9.49,32.989 15.93,49.477 6.63,16.437 13.61,33.105 18.43,50.613 4.73,17.446 7.1,36.078 3.51,53.703 0.32,-17.914 -3.87,-35.187 -10.28,-51.484 -6.25,-16.422 -14.42,-32.051 -22.06,-48.281 -7.72,-16.117 -14.96,-33.012 -19.05,-51.317 -2.03,-9.148 -2.94,-18.679 -2.57,-28.254 0.38,-9.558 2.15,-19.132 5.2,-28.214 1.57,-4.52 3.41,-8.954 5.51,-13.172 2.3,-4.489 4.85,-8.528 7.8,-12.418 5.83,-7.696 12.62,-14.34 19.72,-20.231 14.33,-11.695 29.51,-21.148 43.01,-31.832 13.37,-10.644 24.42,-24 31.48,-39.773 5.16,-11.016 9.18,-23.735 11.83,-35.875 l 0.07,0.101 c 1.19,-5.027 2.29,-10.039 3.24,-15.109 4.04,-16.367 5.19,-28.707 -15.02,-49.43 -5.15,-5.269 -12.16,-9.836 -18.88,-14.242 -3.42,-2.223 -6.54,-4.328 -9.36,-6.32 -5.72,-5.047 -10.95,-10.578 -14.59,-17.949 -0.07,-0.704 -0.09,-1.387 -0.07,-2.075 l 0.86,-18.832 -14.95,11.453 c -12.76,9.805 -18.73,23.618 -24.46,36.899 -4.23,9.742 -8.01,18.555 -13.99,25.137 -6.86,-18.219 -21.84,-37.961 -32.77,-48.493 -4.88,-4.722 -10.08,-10.097 -15.09,-15.273 -8.17,-8.43 -16.61,-17.188 -24.52,-23.824 l -9.56,-8.121 -4.35,11.816 c -2.32,6.43 -2.21,16.652 -2.02,28.484 0.03,3.282 0.06,7.465 0.03,11.477 l -0.19,0.016 0.17,-0.012 c 2.99,8.613 4.92,17.648 5.99,26.723 1.86,17.214 0.68,34.972 -4.82,51.871 -1.39,4.195 -3.2,8.382 -5.12,12.207 -1.93,3.937 -3.95,7.761 -6.1,11.586 -4.33,7.531 -9.15,14.836 -14.21,21.836 -10.19,14.105 -21.63,27.082 -33.42,39.648 -23.45,25.41 -50.43,47.277 -77.38,68.297 l -40.72,31.035 c -6.78,5.211 -13.36,10.367 -20.03,15.73 l -20,15.93 c -26.62,21.004 -52.51,42.879 -72.12,69.574 -9.86,13.239 -18.06,27.704 -24.01,43.024 -5.94,15.344 -9.74,31.582 -11.55,48.078 -1.88,16.527 -1.67,33.332 -0.31,50.094 0.67,8.371 1.73,16.765 3.02,25.105 1.27,8.22 3.22,16.35 5.77,24.29 5,15.89 12.84,31.03 23.82,43.68 10.95,12.65 25.27,22.52 41.4,28.2 -8.27,-2.15 -16.3,-5.37 -23.78,-9.64 -7.53,-4.3 -14.42,-9.67 -20.58,-15.8 -12.36,-12.37 -21.38,-27.8 -27.59,-44.08 -3.14,-8.17 -5.5,-16.64 -7.27,-25.14 -1.73,-8.51 -3.16,-17.025 -4.26,-25.6 -2.26,-17.222 -2.87,-34.668 -1.52,-52.164 1.29,-17.468 4.77,-34.898 10.91,-51.504 6.05,-16.625 14.56,-32.316 24.74,-46.644 10.26,-14.371 22.28,-27.258 34.88,-39.199 12.65,-11.961 25.97,-22.961 39.32,-33.661 l 20.15,-15.851 c 6.69,-5.305 13.52,-10.578 20.36,-15.774 l 41,-30.668 c 13.66,-10.199 27.12,-20.496 40.11,-31.261 12.98,-10.864 25.51,-22.063 37.5,-33.981 11.98,-11.984 23.48,-24.316 33.96,-37.488 5.17,-6.539 10.09,-13.363 14.6,-20.398 4.43,-7.098 8.71,-14.387 11.68,-21.926 6.06,-15.309 8.19,-32.332 7.5,-49.078 -0.33,-8.41 -1.48,-16.813 -3.51,-25 -0.07,-0.41 -0.83,-1.535 -0.92,-1.91 l 0.13,-0.008 c -0.52,-0.774 -1.07,-1.535 -1.69,-2.434 -6.13,-9.629 -9.68,-21.211 -13.47,-33.504 -4.97,-16.082 -10.05,-32.75 -21.64,-46.027 -6.05,-6.867 -13.44,-13.137 -20.59,-19.184 -2.84,-2.441 -5.62,-4.785 -8.26,-7.133 -3.08,-2.019 -6.43,-3.566 -9.66,-5.285 0,-0.508 -0.12,-1.773 -0.44,-5.008 l 0.43,5.004 c -0.59,-0.332 -1.53,-1.254 -2.13,-1.55 -1.87,-0.93 -3.71,-1.817 -5.58,-2.7 -8.1,-3.714 -16.36,-7.171 -24.75,-10 -4.21,-1.464 -8.42,-2.734 -12.66,-3.761 -0.8,-0.188 -1.61,-0.344 -2.4,-0.528 7.52,8.965 13.2,19.559 16.49,30.793 4.44,14.731 5,30.227 3.42,45.196 -1.69,15.011 -5.5,29.66 -11.04,43.586 -5.56,13.937 -12.66,27.238 -21.24,39.625 -4.33,6.207 -8.97,12.125 -14.16,17.761 -5.07,5.551 -10.36,10.668 -15.84,15.692 -10.95,10.043 -22.44,19.265 -34.17,28.082 -23.46,17.679 -47.89,33.394 -70.73,50.695 -22.84,17.305 -44.24,36.211 -61.17,58.852 -4.18,5.601 -8.13,11.531 -11.68,17.488 -3.63,6.133 -6.99,12.348 -10.13,18.726 -6.33,12.77 -11.56,26.012 -15.96,39.622 -4.33,13.605 -7.96,27.468 -10.59,41.558 -2.68,14.094 -4.36,28.391 -5.2,42.734 -1.58,28.684 0.64,57.77 8.53,85.778 -10.44,-27.168 -14.8,-56.625 -14.87,-85.934 -0.08,-14.672 1.04,-29.406 3.07,-43.949 2.04,-14.582 4.99,-29.039 9.1,-43.227 4.02,-14.199 9.02,-28.117 15.1,-41.652 3.05,-6.726 6.36,-13.484 10.06,-19.863 3.83,-6.586 7.74,-12.832 12.15,-18.926 8.69,-12.148 18.58,-23.387 29.23,-33.793 10.65,-10.351 22.07,-19.781 33.7,-28.723 23.34,-17.894 47.67,-33.902 70.8,-50.945 9.51,-7.082 15.87,-11.164 33.3,-26.945 5.23,-4.731 10.33,-9.731 15.24,-14.766 4.72,-4.953 9.16,-10.375 13.28,-16 8.18,-11.32 15.1,-23.687 20.57,-36.644 5.39,-12.918 9.6,-26.411 11.57,-40.239 2.02,-13.769 1.74,-27.859 -1.57,-41.23 -3.27,-13.336 -10.08,-25.75 -19.87,-35.625 l -6.85,-6.91 9.55,0.441 c 5.08,0.238 9.63,1.391 14.07,2.742 4.49,1.321 8.78,2.953 13,4.676 8.46,3.473 16.63,7.41 24.63,11.793 1.73,0.953 3.53,2.008 5.3,3.039 v 0.004 c 0.92,-3.805 1.87,-7.633 2.85,-11.605 4.27,-16.809 6.31,-34.301 8.24,-51.278 1.6,-13.433 3.19,-27.371 5.94,-40.547 3.62,-17.679 16.04,-36.05 28.01,-53.851 14.9,-22.086 30.3,-44.875 31.5,-69.149 8.2,-2.14 27.53,-4.359 37.58,-5.543 12.03,-1.382 16.46,-1.957 18.98,-2.726 19.2,-5.957 22.58,-7.774 27.33,-19.692 1.09,-2.812 2.52,-6.359 5.19,-11.3668 1.01,-1.9023 2.42,-4.2148 3.89,-6.6484 4.74,-7.6719 9.99,-16.3438 11.67,-24.9336 2.57,-13.2539 0.34,-24.2383 -6.64,-32.707 -9.78,-11.8789 -28.22,-17.6446 -56.41,-17.6446 -11.33,0 -22.21,0.8867 -30.97,1.6016 l -5.11,0.3945 c -7.39,0.5821 -15.78,0.7539 -24.6,0.9219 -18.08,0.3164 -36.75,0.6602 -52.05,4.5273 -30.72,7.7149 -35.16,25.4922 -39.88,44.3086 -1.37,5.5313 -2.76,11.2149 -4.92,17.3399 -4.81,13.4961 -17.06,20.0626 -31.22,27.6956 -13.42,7.195 -27.27,14.644 -35.99,28.84 -4.07,6.582 -6.53,12.996 -8.93,19.109 -3.44,8.84 -6.69,17.172 -14.62,25.476 -6.03,6.422 -12.81,12.04 -19.95,18 -10.42,8.727 -21.27,17.723 -29.92,29.5 -17.96,24.399 -40.55,56.762 -56.42,91.047 -1.6,3.235 -2.89,6.727 -4.27,10.395 l -0.06,0.09 c -8.45,9.961 -18.17,18.539 -30.51,24.195 -2.22,1 -4.52,1.926 -6.83,2.766 -0.84,-0.106 -1.63,-0.219 -2.42,-0.325 -4.73,-0.617 -9.63,-1.203 -14.48,-1.203 -34.32,0.121 -63.02,11.77 -87.99,35.469 -3.62,3.477 -6.85,7.391 -9.94,11.234 -6.19,7.672 -10.86,12.918 -16.16,14.868 l 0.14,0.074 0.13,0.07 v 0 l 0.01,0.004 c -0.67,0.231 -1.44,0.43 -2.31,0.598 -0.51,0.093 -1.05,0.176 -1.62,0.234 0.57,-0.058 1.11,-0.144 1.62,-0.234 0.86,-0.16 1.62,-0.364 2.28,-0.594 6.03,3.406 12.27,6.359 18.68,9.246 7.43,3.399 15.08,6.625 22.77,10.152 7.64,3.606 15.43,7.543 22.73,12.555 14.4,9.817 27.25,22.508 36.32,37.516 9.12,15.011 14.43,31.535 17.03,48.277 -8.34,-14.777 -16.38,-29.25 -26.45,-41.711 -9.99,-12.492 -21.89,-23 -35.12,-32.012 -12.83,-8.832 -28.19,-15.718 -42.66,-24.675 -7.24,-4.493 -14.46,-9.453 -20.74,-15.489 l 0.26,-0.136 c -1.44,-1.239 -3.27,-2.914 -5.75,-5.453 l 0.27,-0.114 c -0.55,-0.59 -1.08,-1.191 -1.59,-1.82 -8.74,-7.527 -19.22,-23.031 -23.78,-29.875 -1.4,-2.07 -2.65,-3.934 -3.72,-5.453 -11.69,-16.637 -21.64,-35.078 -31.28,-52.918 -9.88,-18.41 -20.19,-37.465 -32.56,-55.059 -5.34,-7.484 -10.87,-15.004 -16.19,-22.25 -13.7,-18.496 -27.77,-37.621 -38.62,-58.011 -8.29,-15.797 -13.52,-30.157 -15.87,-43.915 -2.63,-15.027 -2.94,-22.769 -2.76,-26.574 2.58,0.254 5.36,0.453 7.67,-0.043 8.95,-1.972 15.77,-8.629 19.08,-12.398 3.27,-3.797 4.68,-7.988 5.62,-11.059 0.43,-1.293 0.88,-2.5896 1.27,-3.3592 0.76,-0.2226 2.43,-0.4218 3.61,-0.5546 1.4,-0.1446 2.97,-0.3321 4.61,-0.6875 6.03,-1.3047 11.74,-3.5274 17.26,-5.6524 l 2.51,-1.0156 c 10.39,-4.0117 24.56,-9.4805 30.22,-21.5 5.91,-12.332 6.73,-22.5664 2.49,-31.2344 -7.22,-15.0273 -27.47,-19.7422 -43.72,-23.5703 -18.73,-4.35547 -47.21,-9.55078 -76.79,-9.55078 -24.66,0 -45.56,3.64453 -62.14,10.85158 -13.19,5.7812 -36.09,17.9648 -41.49,35.043 -4.93,15.4101 2.03,27.375 7.65,36.9648 2.03,3.4414 3.91,6.7266 5.19,9.9414 2.28,5.586 2.78,8.297 2.92,9.469 -0.85,0.402 -2.09,0.937 -3.05,1.402 -4.44,1.957 -10.47,4.621 -16.52,10.828 -15.29,15.793 -8.06,44.996 -6.48,50.727 3.98,14.117 9.3,26.203 14.41,37.91 7.96,18.172 15.48,35.34 16.43,57.5 1.59,37.445 11.57,72.195 21.14,105.797 5.62,19.629 11.4,39.902 15.57,60.66 2.94,14.668 0.92,19.898 -0.56,21.652 -1.69,2.028 -5.58,3.067 -11.62,3.067 -4.55,0 -10.19,-0.574 -18.25,-1.793 -12.66,-1.926 -27.26,-2.852 -44.77,-2.852 -12.89,0 -25.8,0.469 -37.26,0.926 -4.12,0.145 -8.28,0.223 -12.49,0.262 -10.78,0.121 -21.94,0.258 -33.05,2.199 -21.52,3.769 -44.38,13.238 -66.53,22.418 -11.81,4.883 -22.97,9.504 -33.59,13.109 -7.51,2.567 -15.26,5.879 -23.5,9.375 -18.58,7.832 -37.75,15.969 -54.34,15.969 l -1.03,-0.039 c -15.39,-0.301 -23.53,-12.902 -32.96,-27.527 -2.8,-4.27 -5.62,-8.645 -8.71,-12.789 -9.28,-12.477 -14.79,-24.844 -18.3,-41.368 -1.72,-8.132 -3.2,-16.398 -4.82,-25.101 -5.36,-29.371 -10.91,-59.688 -25.34,-86.262 -3.87,-7.101 -8.18,-13.789 -12.35,-20.258 -13.01,-19.98 -24.18,-37.281 -19.34,-61.398 4.68,-23.496 26.33,-40.742 47.3,-57.43 7.79,-6.203 15.15,-12.07 21.71,-18.242 25.82,-24.297 45.37,-32.5 77.51,-32.5 3.06,0 6.44,0.117 9.86,0.266 3.51,0.183 6.84,0.433 9.93,0.691 4.44,0.332 8.66,0.707 12.89,0.707 10.06,0 22.11,-1.832 34.72,-15.32 8.86,-9.481 22.49,-30.887 21.27,-47.9105 -2.29,-32.4882 -42.68,-33.4765 -72.18,-34.1914 -8.02,-0.207 -15.64,-0.3633 -20.96,-1.1875 -6.32,-0.9101 -12.58,-1.9804 -19.18,-3.0508 -18.84,-3.2109 -38.25,-6.4882 -58.13,-6.4882 -8.73,0 -16.7,0.5898 -24.57,1.8281 -21.06,3.3906 -27.32,11.1836 -36,22 -2.28,2.7891 -4.85,5.9726 -8,9.4805 -10,11.0781 -21.48,17.3007 -34.8,24.457 -2.4,1.2969 -4.87,2.6406 -7.35,3.9883 -30.13,16.7075 -53.987,37.4535 -79.87,60.8865 -5.621,5.121 -12.199,10.653 -19.203,16.52 -20.203,16.976 -43.09,36.211 -55.742,55.769 -14.176,21.891 -9.414,51.024 -5.242,76.711 1.519,9.281 2.96,18.016 3.351,25.52 2.02,40.355 -3.101,71.922 -16.098,99.277 l -1.015,2.129 c -3.535,7.445 -9.391,19.879 -16.297,22.746 -1.121,0.449 -1.992,0.746 -2.746,0.856 l -2.016,0.128 c -1.656,-0.238 -3.23,-1.953 -6.832,-6.695 -3.805,-5.004 -8.59,-11.254 -16.621,-15.433 -14.691,-7.633 -30.461,-9.922 -45.672,-12.102 -17.879,-2.574 -34.73,-5.027 -47.781,-15.977 -7.856,-6.613 -14.473,-13.933 -20.957,-21.73 -11.332,-23.438 -35.09,-45.547 -54.344,-54.766 -8.387,-4.027 -17.156,-5.992 -25.605,-7.894 -0.254,-0.078 -0.461,-0.129 -0.68,-0.168 -11.699,-4.629 -23.738,-9.52 -33.266,-16.059 -16.308,-11.277 -25.824,-27.945 -35.707,-46.949 -7.179,-13.664 -9.543,-26.32 -12.25,-41.051 -1.246,-6.82 -2.578,-13.785 -4.39,-21.336 -0.762,-2.996 -1.574,-6 -2.364,-9.019 -4.605,-17.422 -9.003,-33.985 -3.937,-50.406 4.953,0.238 10.184,2.257 15.73,4.398 7.782,3.035 16.782,6.492 26.965,5.637 19.946,-1.571 38.09,-14.981 51.34,-24.739 14.203,-10.492 24.387,-31.6324 24.809,-51.4332 0.332,-15.207 -5.114,-28.1055 -15.344,-36.3711 -10.473,-8.4492 -29.938,-10.5899 -45.559,-12.3633 -3.504,-0.4062 -6.672,-0.7617 -9.183,-1.1484 -16.02,-2.4258 -33.492,-4.58206 -51.723,-4.39847 -1.973,0.01563 -3.969,0.01563 -6.023,0.0625 -29.993,0.17578 -71.141,0.49219 -83.84,34.81637 -5.528,14.9727 -8.41,29.3164 -11.203,43.1954 -4.563,22.5942 -8.844,43.8832 -24.18,64.1252 -20.367,26.929 -16.039,52.566 -11.457,79.664 0.91,5.324 1.852,10.832 2.613,16.5 2.817,20.039 4.098,36.824 1.336,53.57 -0.64,3.863 -2.301,8.852 -4.054,14.16 -3.801,11.516 -8.118,24.547 -5.254,35.563 6.117,23.902 28.617,31.988 48.449,39.09 10.355,3.699 20.168,7.281 27,12.535 -7.172,52.972 17.082,107.301 36.625,151.211 6.055,13.601 10.898,28.117 16.062,43.453 8.442,25.133 17.114,51.144 31.563,72.922 l 5.047,7.648 c 16.386,24.68 33.304,50.199 48.672,76 2.175,3.653 4.378,7.235 6.503,10.738 8.926,14.571 17.278,28.286 23.438,44.942 8.695,23.453 17.535,42.051 28.816,59.535 -22.257,-1.266 -64.711,-1.719 -147.168,-2.629 -78.929,-0.781 -168.371,-1.687 -186.375,-4.598 -52.324,-8.464 -179.078,-38.746 -227.0699,-136.507 -17.5352,-35.727 -26.918,-93.543 -6.168,-136.145 15.1209,-31.035 65.6449,-82.793 96.9259,-85.504 4.172,-0.332 8.195,-0.683 12,-1.015 39.277,-3.235 65.258,-5.403 102.707,-30.688 25.266,-17.062 52.519,-42.84 83.297,-78.906 l 9.078,-10.684 -13.574,-3.504 c -33.461,-8.636 -68.098,-17.543 -102.332,-17.543 -24.293,0 -46.586,4.43 -68.071,13.504 -26.714,11.254 -44.343,18.742 -57.074,46.856 -1.363,2.996 -1.879,7.078 -2.668,14.695 -0.453,4.199 -1.222,11.465 -2.195,14.898 -56.7072,20.43 -96.6056,54.821 -118.6954,102.2 -20.36722,43.754 -24.76566,96.648 -13.0899,157.261 8.9375,46.293 33.336,86.95 70.4688,117.512 C 214.25,934.984 366.324,941.902 527.262,949.203 l 21.078,0.996 c 68.558,3.18 120.898,13.528 186.738,36.844 73.168,25.907 134.617,45.997 203.414,49.667 l 1.5,0.08 c 17.949,0.87 37.004,1.34 56.66,1.34 58.348,0 117.418,-3.9 174.528,-7.67 56.86,-3.75 115.65,-7.63 173.47,-7.63 7.28,0 14.52,0.03 21.87,0.16 75.09,1.35 149.71,13.58 221.94,25.47 30.75,5.07 62.6,10.3 94.25,14.65 l 3.68,0.47 c 42.03,5.78 82.76,16.09 124.16,23.6 1.44,0.24 2.88,0.59 4.28,0.93 -0.1,-0.09 -0.17,-0.17 -0.32,-0.26 h -0.01 c -2.15,-1.57 -4.25,-3.23 -6.3,-4.88 -6.32,-5.36 -12.29,-11.15 -17.91,-17.32 -5.5,-6.27 -10.56,-12.85 -15.25,-19.72 -4.75,-6.86 -8.86,-14.09 -12.66,-21.5 -3.81,-7.43 -7.28,-15.05 -10.11,-22.86 -2.89,-7.836 -5.31,-15.879 -7.31,-23.992 -0.97,-4.09 -1.82,-8.203 -2.58,-12.355 l -1.94,-12.008 c -5.17,-31.535 -11.67,-63.031 -24.69,-91.602 -6.7,-14.113 -15.04,-27.605 -27.03,-37.394 -5.93,-4.957 -12.81,-8.723 -20.3,-11.188 -7.48,-2.457 -15.52,-3.363 -23.63,-3.144 7.93,-1.731 16.3,-2.102 24.54,-0.629 8.28,1.406 16.27,4.793 23.45,9.398 7.14,4.633 13.3,10.614 18.75,17.035 5.49,6.457 9.99,13.59 14.07,20.914 8.11,14.629 13.82,30.325 18.48,46.172 2.37,7.887 4.36,15.914 6.08,23.93 1.77,8.023 3.29,16.086 4.68,24.145 l 1.92,11.976 c 0.63,3.82 1.38,7.61 2.24,11.453 1.71,7.578 3.9,15.145 6.48,22.551 2.55,7.398 5.35,14.728 8.65,21.888 3.26,7.18 6.95,14.1 10.85,20.95 3.93,6.81 8.29,13.4 13.06,19.71 4.63,6.34 9.74,12.44 15.25,18.13 4.02,4.32 8.33,8.38 12.84,12.24 l 0.1,0.37 0.58,0.11 c 4.01,3.4 8.19,6.69 12.55,9.78 2.79,1.57 5.61,3.1 8.53,4.63 11.7,6.33 17.37,14.66 24.42,25.22 3.64,5.45 7.4,11.07 12.34,16.91 10.16,11.87 21.78,23.92 38.35,31.94 4.85,2.37 9.83,4.26 15.24,5.79 21.32,6.05 42.41,11.48 66.29,10.94 3.72,-0.06 7.31,-0.11 10.81,-0.12 13.81,-0.08 26.9,-0.16 42.37,-4.08 12.93,-3.3 22.99,-2.16 37.04,4.17 8.61,3.88 17.06,8.17 25.61,12.44 4.96,2.47 9.92,4.96 14.8,7.35 27.51,13.31 59.97,26.91 98.04,19.85 18.64,-3.44 37.27,-0.31 56.96,3.11 1.42,0.28 2.75,0.55 4.1,0.8 l 0.06,-0.11 c 18.5,3.22 37.57,6.22 57.48,3.52 14.88,-2 29.34,-4.84 42.83,-17.74 5.88,-5.66 9.41,-12.89 12.55,-19.35 2.22,-4.54 4.71,-9.71 6.87,-11.06 4.11,-2.61 10.09,-3.86 16.42,-5.2 9.01,-1.9 19.2,-4.06 28.07,-10.82 14.21,-10.81 25.6,-27.21 32.98,-47.41 2.29,-6.14 3.62,-13.1 5.14,-20.57 5.54,-27.64 10.35,-40.31 29.98,-37.55 2.04,0.3 4.29,1.04 6.69,2.2 5.95,2.92 12.51,8.4 17.17,14.33 l 13.59,17.46 2.02,-22.03 c 1.77,-18.74 -4.81,-34.07 -18.66,-43.91 9.68,-7.84 22.44,-19.68 32.97,-34.65 4.2,-5.5 7.51,-11.566 10.72,-17.496 1.11,-2.011 2.18,-4.039 3.29,-6.023 l -0.83,-0.539 c 2.11,-5.36 3.88,-10.977 5.05,-16.84 1.2,-6.492 1.37,-9.875 1.4,-12.047 0,-0.539 0,-0.891 0.06,-1.301 0.34,-1.203 3.84,-6.886 5.95,-10.316 4.77,-7.738 11.92,-15.473 18.76,-22.938 1.86,-2.007 3.68,-3.996 5.4,-5.871 8.24,-9.211 15.6,-17.82 22.7,-26.179 13.94,-16.446 27.13,-32.02 44.84,-48.606 2.18,-2.031 4.27,-3.879 6.15,-5.582 10.96,-9.668 20.43,-18.012 17.41,-37.93 z M 1780.28,423.625 c -0.71,-0.027 -1.46,-0.074 -2.24,-0.156 l -0.14,-0.145 0.14,0.153 c 0.78,0.074 1.53,0.121 2.24,0.148 z m 706.9,595.175 c -9.02,-3.39 -18.45,-5.39 -28.03,-6.91 -19.19,-3.15 -39.38,-4.24 -59.65,-10.69 -4.98,-1.684 -9.99,-3.68 -14.82,-6.177 -4.8,-2.546 -9.46,-5.597 -13.64,-9.203 -8.44,-7.172 -14.86,-16.586 -18.81,-26.465 -2.09,-5.093 -3.46,-10.378 -4.07,-15.847 -0.63,-5.453 -0.31,-11.024 1.05,-16.344 1.46,-5.254 3.95,-10.254 7.45,-14.258 3.53,-3.996 7.87,-7.047 12.52,-9.058 -3.79,3.382 -7.01,7.187 -9.14,11.386 -2.19,4.196 -3.49,8.649 -3.75,13.207 -0.62,9.043 2.02,18.086 6.31,26.012 4.44,8.188 10.14,15.246 17.22,20.684 7.01,5.437 15.31,9.312 24.22,12.199 17.87,5.769 37.8,7.949 57.53,13.364 9.86,2.71 19.75,6.26 28.71,11.66 8.89,5.41 16.85,12.63 21.93,21.36 -7.6,-6.64 -16,-11.65 -25.03,-14.92 z M 837.031,448.684 c 0,0 80.11,147.425 231.239,153.191 0,0 -155.883,25.66 -231.239,-153.191 z m 255.929,243.324 c -2.51,44.359 5.45,82.265 -14.22,131.191 -3.21,7.883 -10.23,13.051 -16.69,18.516 34.11,-29.199 10.52,-99.735 25.13,-187.266 14.59,-87.597 119.45,-137.98 119.45,-137.98 -16.26,12.117 -31.89,25.148 -46.26,39.5 -37.15,37.019 -64.37,82.773 -67.41,136.039 z m 482.22,-126.856 c -5.4,-9.328 -8.47,-19.691 -10.45,-30.007 -3.69,-20.801 -3.19,-41.825 -0.53,-62.426 0.37,-2.59 0.81,-5.086 1.07,-7.422 0.32,-2.379 0.53,-4.781 0.73,-7.184 0.46,-4.843 0.61,-9.679 0.61,-14.566 0,-9.746 -0.69,-19.574 -1.88,-29.422 -2.14,-19.781 -6.41,-39.832 -7.52,-60.395 7.05,19.211 14.3,38.153 18.91,58.454 2.27,10.105 3.79,20.492 4.34,31.031 0.26,5.285 0.21,10.551 -0.03,15.859 -0.2,2.668 -0.47,5.332 -0.78,7.926 -0.25,2.719 -0.65,5.254 -0.96,7.676 -2.57,19.57 -4.01,39.461 -2.63,58.961 0.76,9.699 2.25,19.375 5.53,28.449 3.23,9.043 8.71,17.41 17.43,23.043 -4.99,-1.309 -9.7,-3.988 -13.75,-7.5 -3.99,-3.516 -7.29,-7.871 -10.09,-12.477"
         style="fill:#000000;fill-opacity:1;fill-rule:evenodd;stroke:none"
         id="path12" />
      <path
         d="M 856.988,584.289 V 689.336 L 843.98,641.082 h -42.968 l -12.676,47.969 V 584.289 h -44.875 v 243.262 h 44.035 l 35.184,-111.133 35.172,111.133 h 44.07 V 584.289 h -44.934"
         style="fill:#ffffff;fill-opacity:1;fill-rule:nonzero;stroke:none"
         id="path14" />
      <path
         d="m 903.844,829.473 h -47.399 l -0.855,-2.688 -32.914,-103.984 -32.918,103.984 -0.848,2.688 h -2.82 -40.699 -3.852 v -3.852 -239.41 -3.848 h 3.852 41.023 3.852 v 3.848 88.008 l 8.504,-32.199 0.761,-2.864 h 2.965 40.008 2.949 l 0.774,2.848 8.832,32.781 v -88.574 -3.848 h 3.851 41.082 3.852 v 3.848 239.41 z m -3.852,-3.852 V 586.211 H 858.91 v 117.66 l -16.406,-60.863 h -40.008 l -16.082,60.863 v -117.66 h -41.023 v 239.41 h 40.699 l 36.586,-115.586 36.59,115.586 h 40.726"
         style="fill:#ffffff;fill-opacity:1;fill-rule:nonzero;stroke:none"
         id="path16" />
      <path
         d="m 996.184,782.664 h -25.911 v -82.332 h 25.911 z m 0,-198.375 v 71.152 H 970.273 V 584.289 H 925.398 V 800.32 c 0,15.016 12.207,27.231 27.211,27.231 h 61.591 c 15.01,0 27.23,-12.215 27.23,-27.231 V 584.289 h -45.246"
         style="fill:#ffffff;fill-opacity:1;fill-rule:nonzero;stroke:none"
         id="path18" />
      <path
         d="m 972.199,780.738 h 22.063 v -78.48 h -22.063 z m 42.001,48.739 h -61.591 c -16.07,0 -29.14,-13.082 -29.14,-29.157 v -214.105 -3.852 h 3.855 41.024 3.851 v 3.852 67.297 h 22.063 v -67.297 -3.852 h 3.847 41.391 3.85 v 3.852 166.562 38.317 9.226 c 0,16.075 -13.07,29.157 -29.15,29.157 z M 968.348,698.395 h 29.761 v 86.191 h -29.761 z m 45.852,127.23 c 13.68,0 25.3,-11.277 25.3,-25.305 v -9.226 -38.317 -166.562 h -41.391 v 71.148 H 968.348 V 586.215 H 927.324 V 800.32 c 0,14.028 11.27,25.305 25.285,25.305 h 61.591"
         style="fill:#ffffff;fill-opacity:1;fill-rule:nonzero;stroke:none"
         id="path20" />
      <path
         d="m 1138.56,584.289 -0.72,2.832 -30.35,96.692 h -0.43 v -99.524 h -44.9 v 243.262 h 44.9 v -98.113 l 31.23,98.113 h 45.76 l -38.92,-121.317 38.92,-121.945 h -45.49"
         style="fill:#ffffff;fill-opacity:1;fill-rule:nonzero;stroke:none"
         id="path22" />
      <path
         d="m 1186.69,829.473 h -49.81 l -0.86,-2.68 -27.03,-84.945 v 83.773 3.852 h -3.85 -41.05 -3.86 v -3.852 -239.41 -3.848 h 3.86 41.05 3.85 v 3.848 86.383 l 27.03,-86.149 0.3,-1.195 0.75,-2.887 h 2.98 41.36 5.27 l -1.6,5.024 -37.93,118.843 37.93,118.215 z m -5.28,-3.852 -38.3,-119.391 38.3,-120.019 h -41.36 l -0.35,1.387 -30.8,98.136 h -3.76 v -99.523 h -41.05 v 239.41 h 41.05 v -98.848 h 3.09 l 31.47,98.848 h 41.71"
         style="fill:#ffffff;fill-opacity:1;fill-rule:nonzero;stroke:none"
         id="path24" />
      <path
         d="m 1191.81,584.289 v 243.262 h 116.03 v -44.883 h -71.14 v -53.977 h 56.78 v -44.878 h -56.78 v -54.297 h 71.14 v -45.227 h -116.03"
         style="fill:#ffffff;fill-opacity:1;fill-rule:nonzero;stroke:none"
         id="path26" />
      <path
         d="m 1309.77,829.473 h -119.88 v -247.11 h 119.88 v 3.848 41.383 3.851 h -3.86 -67.28 v 50.438 h 52.93 3.85 v 3.851 41.039 3.852 h -3.85 -52.93 v 50.113 h 67.28 3.86 v 3.852 41.031 z m -3.86,-3.852 V 784.59 h -71.14 v -57.817 h 56.79 v -41.039 h -56.79 v -58.14 h 71.14 v -41.383 h -112.17 v 239.41 h 112.17"
         style="fill:#ffffff;fill-opacity:1;fill-rule:nonzero;stroke:none"
         id="path28" />
      <path
         d="m 1381.27,827.551 h 44.87 V 584.289 h -44.87 v 243.262"
         style="fill:#ffffff;fill-opacity:1;fill-rule:nonzero;stroke:none"
         id="path30" />
      <path
         d="m 1428.06,829.473 h -48.72 v -247.11 h 48.72 v 3.848 239.41 z m -3.85,-243.262 h -41.02 v 239.41 h 41.02 v -239.41"
         style="fill:#ffffff;fill-opacity:1;fill-rule:nonzero;stroke:none"
         id="path32" />
      <path
         d="m 1517.83,584.289 -26.72,92.902 v -92.902 h -44.89 v 243.262 h 44.04 l 26.76,-87.242 v 87.242 h 45.22 V 584.289 h -44.41"
         style="fill:#ffffff;fill-opacity:1;fill-rule:nonzero;stroke:none"
         id="path34" />
      <path
         d="m 1564.16,829.473 h -49.07 v -76.317 l -22.57,73.59 -0.83,2.727 h -2.85 -40.69 -3.85 v -3.852 -239.41 -3.848 h 3.85 41.04 3.85 v 3.848 77.32 l 22.54,-78.379 0.8,-2.789 h 2.91 41.02 3.85 v 3.848 239.41 z m -3.85,-3.852 v -239.41 h -41.02 l -30.1,104.644 V 586.211 h -41.04 v 239.41 h 40.69 l 30.1,-98.164 v 98.164 h 41.37"
         style="fill:#ffffff;fill-opacity:1;fill-rule:nonzero;stroke:none"
         id="path36" />
      <path
         d="m 1643.88,827.551 h 44.89 V 584.289 h -44.89 v 243.262"
         style="fill:#ffffff;fill-opacity:1;fill-rule:nonzero;stroke:none"
         id="path38" />
      <path
         d="m 1690.7,829.473 h -48.74 v -247.11 h 48.74 v 3.848 239.41 z m -3.85,-243.262 h -41.03 v 239.41 h 41.03 v -239.41"
         style="fill:#ffffff;fill-opacity:1;fill-rule:nonzero;stroke:none"
         id="path40" />
      <path
         d="m 1780.46,584.289 -26.72,92.902 v -92.902 h -44.88 v 243.262 h 44.04 l 26.76,-87.242 v 87.242 h 45.23 V 584.289 h -44.43"
         style="fill:#ffffff;fill-opacity:1;fill-rule:nonzero;stroke:none"
         id="path42" />
      <path
         d="m 1826.82,829.473 h -49.09 v -76.317 l -22.57,73.59 -0.83,2.727 h -2.85 -40.69 -3.86 v -3.852 -239.41 -3.848 h 3.86 41.03 3.85 v 3.848 77.32 l 22.54,-78.379 0.8,-2.789 h 2.9 41.06 3.85 v 3.848 239.41 z m -3.85,-3.852 v -239.41 h -41.06 l -30.09,104.644 V 586.211 h -41.03 v 239.41 h 40.69 l 30.1,-98.164 v 98.164 h 41.39"
         style="fill:#ffffff;fill-opacity:1;fill-rule:nonzero;stroke:none"
         id="path44" />
      <path
         d="m 1916.45,782.664 h -25.93 V 629.52 h 25.93 z m -70.82,-198.375 v 243.262 h 88.81 c 15.02,0 27.24,-12.215 27.24,-27.231 V 611.539 c 0,-14.769 -12.47,-27.25 -27.24,-27.25 h -88.81"
         style="fill:#ffffff;fill-opacity:1;fill-rule:nonzero;stroke:none"
         id="path46" />
      <path
         d="m 1892.45,780.738 h 22.07 V 631.445 h -22.07 z m 41.99,48.739 H 1843.7 V 582.363 h 90.74 c 15.81,0 29.17,13.364 29.17,29.172 V 800.32 c 0,16.075 -13.09,29.157 -29.17,29.157 z m -45.85,-201.895 h 29.79 v 157.004 h -29.79 z m 45.85,198.043 c 13.69,0 25.31,-11.277 25.31,-25.305 V 611.535 c 0,-13.68 -11.62,-25.32 -25.31,-25.32 h -86.89 v 239.41 h 86.89"
         style="fill:#ffffff;fill-opacity:1;fill-rule:nonzero;stroke:none"
         id="path48" />
      <path
         d="m 1984.48,827.551 h 44.87 V 584.289 h -44.87 v 243.262"
         style="fill:#ffffff;fill-opacity:1;fill-rule:nonzero;stroke:none"
         id="path50" />
      <path
         d="m 2031.28,829.473 h -48.73 v -247.11 h 48.73 v 3.848 239.41 z m -3.85,-243.262 h -41.02 v 239.41 h 41.02 v -239.41"
         style="fill:#ffffff;fill-opacity:1;fill-rule:nonzero;stroke:none"
         id="path52" />
      <path
         d="m 2120.26,782.664 h -25.89 v -82.332 h 25.89 z m 0,-198.375 v 71.152 h -25.89 v -71.152 h -44.91 V 800.32 c 0,15.016 12.22,27.231 27.23,27.231 h 61.55 c 15.01,0 27.24,-12.215 27.24,-27.231 V 584.289 h -45.22"
         style="fill:#ffffff;fill-opacity:1;fill-rule:nonzero;stroke:none"
         id="path54" />
      <path
         d="m 2096.3,780.738 h 22.04 v -78.48 h -22.04 z m 41.93,48.739 h -61.54 c -16.08,0 -29.15,-13.082 -29.15,-29.157 v -214.105 -3.852 h 3.85 41.06 3.85 v 3.852 67.297 h 22.04 v -67.297 -3.852 h 3.85 41.36 3.85 v 3.852 166.562 38.317 9.226 c 0,16.075 -13.08,29.157 -29.17,29.157 z m -45.78,-131.082 h 29.74 v 86.191 h -29.74 z m 45.78,127.23 c 13.7,0 25.32,-11.277 25.32,-25.305 v -9.226 -38.317 -166.562 h -41.36 v 71.148 h -29.74 v -71.148 h -41.06 V 800.32 c 0,14.028 11.27,25.305 25.3,25.305 h 61.54"
         style="fill:#ffffff;fill-opacity:1;fill-rule:nonzero;stroke:none"
         id="path56" />
    </g>
  </g>
</svg>
