<svg width="115" height="48" viewBox="0 0 212 65" xmlns="http://www.w3.org/2000/svg"><g id="svgGroup" stroke-linecap="round" fill-rule="evenodd" font-size="9pt" stroke="#000" stroke-width="0.25mm" fill="#000" style="stroke:#000;stroke-width:0.25mm;fill:#000"><path d="M 163.3 52.8 Q 163.1 52 163.1 51.5 A 4.111 4.111 0 0 1 164.515 48.363 A 5.916 5.916 0 0 1 164.95 48 Q 166.8 46.6 169 46.6 Q 170.8 46.6 172.2 47.65 A 5.378 5.378 0 0 1 173.554 49.164 Q 173.994 49.882 174.3 50.8 Q 174.938 52.792 177.385 54.023 A 12.019 12.019 0 0 0 178.75 54.6 A 22.211 22.211 0 0 0 183.645 55.717 A 28.108 28.108 0 0 0 186.9 55.9 A 24.467 24.467 0 0 0 190.365 55.67 Q 192.188 55.409 193.692 54.851 A 11.804 11.804 0 0 0 195.6 53.95 Q 197.863 52.613 198.574 50.783 A 4.878 4.878 0 0 0 198.9 49 A 3.924 3.924 0 0 0 198.578 47.368 Q 198.136 46.391 197.09 45.797 A 5.744 5.744 0 0 0 195.9 45.3 Q 193.612 44.614 189.346 44.16 A 102.396 102.396 0 0 0 186.5 43.9 A 151.157 151.157 0 0 1 182.101 43.429 Q 177.724 42.89 174.653 42.197 A 44.275 44.275 0 0 1 174.45 42.15 Q 169.9 41.1 166.75 38 Q 163.6 34.9 163.6 28.8 A 13.839 13.839 0 0 1 164.633 23.412 A 13.144 13.144 0 0 1 166.4 20.4 A 16.29 16.29 0 0 1 170.799 16.525 A 22.127 22.127 0 0 1 174.3 14.8 A 28.076 28.076 0 0 1 180.357 13.211 A 38.311 38.311 0 0 1 186.1 12.8 Q 195.055 12.8 200.62 15.439 A 14.87 14.87 0 0 1 208.5 23.7 Q 208.744 24.431 208.79 25.03 A 3.546 3.546 0 0 1 208.8 25.3 A 4.598 4.598 0 0 1 208.37 27.31 Q 207.908 28.276 206.95 29 Q 205.1 30.4 202.9 30.4 A 7.646 7.646 0 0 1 201.586 30.294 Q 200.84 30.163 200.231 29.874 A 4.372 4.372 0 0 1 199.9 29.7 Q 198.824 29.073 198.15 27.641 A 7.539 7.539 0 0 1 198 27.3 Q 196.179 23.31 188.565 22.781 A 35.606 35.606 0 0 0 186.1 22.7 A 24.025 24.025 0 0 0 182.893 22.901 Q 181.251 23.123 179.889 23.589 A 11.26 11.26 0 0 0 178.05 24.4 A 7.766 7.766 0 0 0 176.576 25.444 A 4.53 4.53 0 0 0 175 28.9 Q 175 31.5 176.8 32.25 Q 178.157 32.816 181.049 33.182 A 55.383 55.383 0 0 0 183.1 33.4 A 26.893 26.893 0 0 1 185.807 33.542 A 31.767 31.767 0 0 1 187.1 33.7 Q 195.2 34.6 199.55 35.65 Q 203.9 36.7 207.1 39.8 Q 209.873 42.486 210.243 47.423 A 21.081 21.081 0 0 1 210.3 49 Q 210.3 53.9 207.35 57.7 A 17.356 17.356 0 0 1 202.536 61.914 A 23.168 23.168 0 0 1 199.1 63.6 A 29.078 29.078 0 0 1 192.632 65.298 A 39.104 39.104 0 0 1 186.9 65.7 A 43.178 43.178 0 0 1 178.185 64.854 A 35.192 35.192 0 0 1 171.9 62.95 A 13.817 13.817 0 0 1 163.87 54.631 A 18.55 18.55 0 0 1 163.3 52.8 Z M 87.9 62.5 L 73.6 47 L 59.4 62.3 A 9.103 9.103 0 0 1 57.734 63.691 A 6.103 6.103 0 0 1 54.4 64.7 Q 52.3 64.7 50.8 63.3 Q 49.3 61.9 49.3 59.9 Q 49.3 57.752 51.112 55.794 A 9.893 9.893 0 0 1 51.2 55.7 L 66.6 39.1 L 51.6 22.9 A 8.118 8.118 0 0 1 50.499 21.469 Q 49.7 20.127 49.7 18.7 A 4.644 4.644 0 0 1 50.177 16.586 A 4.721 4.721 0 0 1 51.25 15.2 Q 52.8 13.8 55 13.8 A 6.284 6.284 0 0 1 58.281 14.753 Q 59.314 15.375 60.3 16.4 L 73.8 30.9 L 87.5 16.2 A 9.103 9.103 0 0 1 89.167 14.809 A 6.103 6.103 0 0 1 92.5 13.8 Q 94.6 13.8 96.15 15.15 A 4.558 4.558 0 0 1 97.276 16.585 A 4.303 4.303 0 0 1 97.7 18.5 Q 97.7 20.7 95.7 22.8 L 80.7 38.9 L 95.8 55.2 A 6.83 6.83 0 0 1 97.062 57.025 A 5.822 5.822 0 0 1 97.6 59.5 A 5.133 5.133 0 0 1 97.137 61.697 A 5.068 5.068 0 0 1 96.05 63.2 Q 94.5 64.7 92.4 64.7 A 5.206 5.206 0 0 1 89.932 64.052 Q 89.17 63.647 88.42 62.988 A 10.945 10.945 0 0 1 87.9 62.5 Z M 130.2 12.8 Q 138.1 12.8 144.15 16.15 Q 150.2 19.5 153.5 25.55 A 26.916 26.916 0 0 1 156.51 34.973 A 34.255 34.255 0 0 1 156.8 39.5 A 31.614 31.614 0 0 1 155.833 47.052 A 25.75 25.75 0 0 1 153.35 53.25 Q 150 59.2 144 62.45 A 26.867 26.867 0 0 1 134.502 65.436 A 34.083 34.083 0 0 1 130.2 65.7 A 31.853 31.853 0 0 1 122.635 64.836 A 25.923 25.923 0 0 1 116.4 62.45 Q 110.4 59.2 107.05 53.25 A 26.696 26.696 0 0 1 103.914 43.741 A 33.873 33.873 0 0 1 103.6 39.5 Q 103.6 31.6 106.95 25.55 Q 110.3 19.5 116.3 16.15 A 26.288 26.288 0 0 1 125.677 13.096 A 33.653 33.653 0 0 1 130.2 12.8 Z M 11.3 40.6 L 11.3 59.6 A 4.939 4.939 0 0 1 10.875 61.67 A 4.822 4.822 0 0 1 9.7 63.25 A 5.556 5.556 0 0 1 6.014 64.697 A 7.144 7.144 0 0 1 5.8 64.7 A 7.87 7.87 0 0 1 3.991 64.503 A 5.474 5.474 0 0 1 1.6 63.3 A 4.603 4.603 0 0 1 0.01 59.954 A 6.322 6.322 0 0 1 0 59.6 L 0 18.9 A 4.881 4.881 0 0 1 0.347 17.03 A 4.535 4.535 0 0 1 1.75 15.2 Q 3.5 13.8 5.8 13.8 Q 8 13.8 9.65 15.15 Q 11.3 16.5 11.3 18.9 L 11.3 19.5 A 13.881 13.881 0 0 1 16.073 15.316 Q 18.988 13.8 22.7 13.8 Q 24.643 13.8 25.984 14.378 A 4.897 4.897 0 0 1 27.05 15 A 3.824 3.824 0 0 1 28.416 17.131 Q 28.586 17.783 28.599 18.567 A 7.896 7.896 0 0 1 28.6 18.7 A 5.799 5.799 0 0 1 28.366 20.391 A 4.482 4.482 0 0 1 27 22.5 A 5.432 5.432 0 0 1 24.713 23.669 Q 23.797 23.9 22.7 23.9 A 13.515 13.515 0 0 0 19.303 24.3 A 8.571 8.571 0 0 0 13.95 28.2 A 15.16 15.16 0 0 0 12.339 31.949 Q 11.317 35.474 11.301 40.442 A 49.161 49.161 0 0 0 11.3 40.6 Z M 32.9 59.7 L 32.9 5 A 4.578 4.578 0 0 1 34.33 1.611 A 5.828 5.828 0 0 1 34.5 1.45 A 5.525 5.525 0 0 1 37.442 0.085 A 7.611 7.611 0 0 1 38.6 0 A 6.353 6.353 0 0 1 40.749 0.352 A 5.603 5.603 0 0 1 42.65 1.5 A 5.439 5.439 0 0 1 43.703 2.775 A 4.334 4.334 0 0 1 44.3 5 L 44.3 59.7 A 4.452 4.452 0 0 1 43.083 62.767 A 6.196 6.196 0 0 1 42.65 63.2 A 5.723 5.723 0 0 1 38.971 64.691 A 7.41 7.41 0 0 1 38.6 64.7 Q 36.1 64.7 34.5 63.25 A 4.893 4.893 0 0 1 33.313 61.666 A 4.654 4.654 0 0 1 32.9 59.7 Z M 130.2 55.7 A 16.195 16.195 0 0 0 135.215 54.958 A 13.232 13.232 0 0 0 141 51.2 A 15.441 15.441 0 0 0 144.772 43.362 A 21.734 21.734 0 0 0 145.1 39.5 A 21.806 21.806 0 0 0 144.475 34.139 A 15.815 15.815 0 0 0 141 27.45 A 13.49 13.49 0 0 0 131.231 22.829 A 18.466 18.466 0 0 0 130.2 22.8 A 15.639 15.639 0 0 0 125.054 23.613 A 13.207 13.207 0 0 0 119.4 27.45 A 16.086 16.086 0 0 0 115.681 35.246 A 22.732 22.732 0 0 0 115.3 39.5 A 20.628 20.628 0 0 0 115.926 44.713 A 15.139 15.139 0 0 0 119.4 51.2 A 13.57 13.57 0 0 0 128.666 55.639 A 18.672 18.672 0 0 0 130.2 55.7 Z" vector-effect="non-scaling-stroke"/></g></svg>